<?xml version="1.0" encoding="UTF-8" standalone="no"?>
<svg width="60px" height="60px" viewBox="0 0 60 60" version="1.1" xmlns="http://www.w3.org/2000/svg" xmlns:xlink="http://www.w3.org/1999/xlink">
    <!-- Generator: Sketch 3.8.2 (29753) - http://www.bohemiancoding.com/sketch -->
    <title>Attachments Export</title>
    <desc>Created with Sketch.</desc>
    <defs>
        <rect id="path-1" x="0" y="0" width="17" height="1"></rect>
        <mask id="mask-2" maskContentUnits="userSpaceOnUse" maskUnits="objectBoundingBox" x="0" y="0" width="17" height="1" fill="white">
            <use xlink:href="#path-1"></use>
        </mask>
        <rect id="path-3" x="0" y="3" width="18" height="1"></rect>
        <mask id="mask-4" maskContentUnits="userSpaceOnUse" maskUnits="objectBoundingBox" x="0" y="0" width="18" height="1" fill="white">
            <use xlink:href="#path-3"></use>
        </mask>
        <rect id="path-5" x="0" y="6" width="15" height="1"></rect>
        <mask id="mask-6" maskContentUnits="userSpaceOnUse" maskUnits="objectBoundingBox" x="0" y="0" width="15" height="1" fill="white">
            <use xlink:href="#path-5"></use>
        </mask>
        <rect id="path-7" x="0" y="9" width="17" height="1"></rect>
        <mask id="mask-8" maskContentUnits="userSpaceOnUse" maskUnits="objectBoundingBox" x="0" y="0" width="17" height="1" fill="white">
            <use xlink:href="#path-7"></use>
        </mask>
        <rect id="path-9" x="0" y="12" width="10" height="1"></rect>
        <mask id="mask-10" maskContentUnits="userSpaceOnUse" maskUnits="objectBoundingBox" x="0" y="0" width="10" height="1" fill="white">
            <use xlink:href="#path-9"></use>
        </mask>
    </defs>
    <g id="Page-1" stroke="none" stroke-width="1" fill="none" fill-rule="evenodd">
        <g id="Attachments-Export">
            <g id="Document" transform="translate(26.682230, 13.318386)">
                <polygon id="DocuBack" fill="#FFFFFF" points="0 2.84217094e-14 18.2857143 2.84217094e-14 32 13.3333333 32 40 0 40"></polygon>
                <polygon id="DocShape" stroke="#4F91F0" points="2 2 18 2 30 14 30 38 2 38"></polygon>
                <polyline id="FoldOver" stroke="#4F91F0" points="29.5 14.5 17.5 14.5 17.5 2.5"></polyline>
                <g id="Faux-Text" transform="translate(7.000000, 19.000000)" stroke="#4F91F0" stroke-width="2">
                    <use id="Rectangle-4" mask="url(#mask-2)" xlink:href="#path-1"></use>
                    <use id="Rectangle-4-Copy" mask="url(#mask-4)" xlink:href="#path-3"></use>
                    <use id="Rectangle-4-Copy-2" mask="url(#mask-6)" xlink:href="#path-5"></use>
                    <use id="Rectangle-4-Copy-3" mask="url(#mask-8)" xlink:href="#path-7"></use>
                    <use id="Rectangle-4-Copy-4" mask="url(#mask-10)" xlink:href="#path-9"></use>
                </g>
            </g>
            <g id="Photo-2" transform="translate(1.511497, 31.517316)" fill="#FFFFFF">
                <rect id="BackBorder-2" transform="translate(15.750000, 13.250000) rotate(90.000000) translate(-15.750000, -13.250000) " x="3" y="-2" width="25.5" height="30.5"></rect>
                <rect id="Rectangle-2" stroke="#4F91F0" transform="translate(15.750000, 13.250000) rotate(90.000000) translate(-15.750000, -13.250000) " x="5" y="7.10542736e-15" width="21.5" height="26.5"></rect>
            </g>
            <g id="Photo-1" transform="translate(8.422416, 3.855894)">
                <polygon id="BackBorder-1" fill="#FFFFFF" points="0 5.78431373 0 0 23.5 0 23.5 29.5 0 29.5"></polygon>
                <polygon id="Rectangle-1" stroke="#4F91F0" points="2 7 2 2 21.5 2 21.5 27.5 2 27.5"></polygon>
            </g>
        </g>
    </g>
</svg>
